<?xml version="1.0" standalone="no"?>
<!DOCTYPE svg PUBLIC "-//W3C//DTD SVG 20010904//EN"
 "http://www.w3.org/TR/2001/REC-SVG-20010904/DTD/svg10.dtd">
<svg version="1.0" xmlns="http://www.w3.org/2000/svg"
 width="539.000000pt" height="539.000000pt" viewBox="0 0 539.000000 539.000000"
 preserveAspectRatio="xMidYMid meet">

<g transform="translate(0.000000,539.000000) scale(0.100000,-0.100000)"
fill="#000000" stroke="none">
<path d="M2226 4484 c-51 -26 -105 -64 -90 -64 4 0 -5 -15 -22 -32 -16 -18
-38 -44 -49 -58 l-20 -25 30 26 c30 26 67 49 81 49 3 0 -11 -19 -32 -42 -22
-24 -47 -54 -56 -68 -12 -17 -17 -20 -17 -9 -1 8 5 21 12 29 10 12 9 12 -4 2
-9 -6 -20 -8 -24 -4 -5 4 -5 2 -2 -5 4 -6 2 -35 -4 -64 -11 -52 -11 -52 -28
-30 -14 18 -19 20 -28 9 -12 -15 -56 -158 -50 -164 3 -4 40 83 52 124 3 12 10
22 15 22 13 0 24 -46 16 -66 -5 -12 3 -10 26 8 27 21 34 36 43 86 14 73 47
126 112 178 26 21 53 42 58 47 13 11 -26 -3 -42 -15 -7 -6 -18 -8 -24 -6 -6 2
14 23 45 47 76 59 76 64 2 25z"/>
<path d="M3522 4312 c-23 -48 -44 -100 -48 -115 -5 -20 -9 -25 -15 -16 -4 7
-5 -5 -2 -27 4 -29 1 -43 -11 -53 -9 -7 -16 -21 -16 -31 0 -10 -8 -24 -17 -31
-15 -12 -16 -12 -10 3 10 27 -29 33 -68 9 -41 -24 -44 -21 -11 11 13 13 32 37
42 53 17 27 17 29 1 16 -22 -17 -22 -14 6 50 13 30 27 62 30 73 6 15 10 16 22
6 20 -17 19 2 -4 59 l-18 43 -16 -65 c-21 -86 -59 -165 -106 -223 -35 -42 -51
-80 -51 -122 0 -12 9 -7 33 14 61 57 107 78 107 49 0 -57 -162 -260 -198 -249
-15 5 -15 4 0 -6 14 -9 28 -2 80 40 65 52 141 87 214 97 58 8 58 -11 0 -71
-49 -50 -212 -137 -246 -131 -17 3 -20 -1 -20 -36 0 -36 2 -39 28 -39 16 0 32
-3 36 -7 4 -5 60 -8 124 -9 90 0 127 -4 160 -18 23 -10 42 -21 42 -26 0 -4
-18 -15 -39 -25 -30 -13 -52 -16 -93 -11 -29 4 -60 8 -68 8 -8 0 -20 5 -27 10
-7 6 -20 -8 -41 -47 -27 -50 -28 -55 -11 -55 30 0 19 -40 -24 -87 -17 -19 -18
-23 -4 -23 8 0 28 -5 43 -10 l27 -11 -23 -24 c-25 -27 -125 -71 -182 -80 -25
-4 -38 -11 -38 -21 0 -12 -11 -15 -52 -12 -48 3 -53 1 -56 -19 -4 -27 -7 -27
-61 -8 -22 8 -41 13 -41 11 0 -2 15 -27 34 -55 53 -78 90 -200 90 -296 1 -119
-22 -175 -102 -253 -36 -34 -67 -60 -70 -57 -3 2 -13 0 -23 -6 -30 -16 -22 -2
21 37 75 68 110 152 110 267 0 67 -20 137 -39 137 -5 0 -17 7 -25 16 -15 14
-16 14 -16 -3 0 -15 -2 -16 -10 -3 -8 13 -10 13 -10 -2 0 -14 -4 -15 -29 -7
-21 7 -36 7 -48 0 -17 -10 -17 -10 0 -11 10 0 17 -6 14 -12 -2 -8 -26 -14 -63
-15 -32 -1 -65 -2 -71 -2 -7 -1 -13 -5 -13 -10 0 -12 108 -41 152 -41 31 0 37
-4 47 -31 16 -48 15 -50 -33 -48 -25 2 -43 6 -40 11 3 4 -13 8 -36 8 -23 0
-39 -4 -35 -9 12 -21 124 -81 150 -81 27 0 27 -1 23 -51 -7 -66 -48 -124 -117
-166 -77 -46 -143 -58 -321 -58 -149 0 -194 7 -286 42 -13 5 -15 3 -9 -8 5 -8
-15 3 -44 24 -29 21 -54 37 -56 35 -2 -2 3 -20 10 -41 14 -42 28 -54 93 -88
23 -12 42 -26 42 -30 0 -11 -39 -2 -56 12 -8 6 -14 8 -14 4 0 -4 -6 -3 -13 3
-14 12 -90 23 -85 13 30 -57 32 -63 20 -94 -6 -17 -10 -33 -7 -35 2 -2 39 15
82 38 277 150 651 146 966 -11 101 -51 155 -99 111 -99 -8 0 -12 -4 -9 -10 4
-6 -5 -6 -22 1 -35 14 -101 24 -91 14 4 -4 -9 -17 -30 -28 -20 -11 -40 -25
-44 -31 -6 -8 -8 -8 -8 1 0 6 -9 9 -20 6 -11 -3 -17 -10 -13 -17 4 -8 2 -8 -7
1 -8 7 -22 8 -43 2 -46 -13 -55 -11 -62 12 -5 16 -13 20 -31 16 -13 -2 -24 -1
-24 2 0 4 -9 7 -20 7 -18 0 -18 -2 -4 -18 16 -17 10 -43 -7 -32 -6 3 -36 6
-66 5 -41 0 -60 4 -68 16 -8 11 -18 14 -31 8 -10 -4 -22 -7 -26 -7 -5 1 -8 -3
-8 -8 0 -17 -84 1 -97 21 -13 18 -28 19 -52 5 -10 -6 -12 -5 -7 2 4 7 1 12 -8
12 -18 0 -76 32 -76 43 0 5 -4 6 -9 3 -4 -3 -17 2 -27 10 -10 9 -12 12 -4 8
11 -5 10 -2 -3 13 -22 25 -63 19 -129 -20 -48 -28 -88 -67 -69 -67 7 0 9 -4 6
-10 -3 -5 6 -12 20 -16 13 -3 22 -10 19 -15 -3 -5 16 -8 41 -7 28 1 50 -4 54
-11 4 -7 17 -13 29 -14 11 0 19 -4 17 -8 -4 -6 47 -62 76 -85 8 -6 20 -9 27
-6 6 2 12 -1 12 -7 0 -5 25 -18 56 -28 54 -17 57 -17 70 1 7 10 15 23 16 28 2
5 41 4 93 -2 174 -19 351 -8 465 30 30 10 56 17 57 16 2 -1 -3 -27 -9 -58 -10
-48 -9 -62 7 -104 10 -27 26 -61 37 -76 l18 -27 63 21 c82 28 106 58 71 92
-14 15 -14 16 0 16 10 0 16 9 16 23 1 26 16 47 49 65 20 12 26 11 45 -7 12
-12 27 -21 34 -21 15 0 25 18 16 32 -4 6 -8 24 -9 40 -4 39 -11 44 -34 23 -20
-17 -20 -17 -15 17 8 47 -16 68 -44 40 -22 -22 -34 -19 -25 4 16 42 -49 107
-69 69 -9 -15 -11 -15 -29 1 -19 17 -26 44 -11 44 4 0 13 -5 20 -12 9 -9 12
-8 12 4 0 26 17 30 51 13 17 -9 41 -14 52 -11 12 3 27 0 35 -6 27 -23 -15 60
-56 110 -22 26 -62 94 -89 152 -27 58 -64 127 -81 155 -28 46 -32 48 -39 28
-5 -14 -8 12 -9 70 0 76 -5 104 -27 156 -17 43 -23 69 -17 76 6 7 7 15 3 18
-3 4 -1 7 6 7 9 0 11 -8 8 -22 -6 -22 -6 -22 14 2 12 14 19 18 16 10 -7 -24
11 -62 25 -53 26 16 38 12 25 -7 -6 -10 -15 -16 -21 -13 -5 4 -1 -6 10 -20 10
-15 23 -27 28 -27 5 0 3 6 -3 13 -8 10 -7 14 2 14 8 0 15 -5 16 -11 1 -6 3
-22 5 -36 2 -14 8 -37 14 -51 6 -14 8 -53 5 -87 -5 -58 -3 -65 40 -145 26 -47
65 -130 87 -184 23 -54 53 -126 68 -160 17 -40 29 -58 34 -50 24 37 -11 341
-57 506 -21 74 -85 211 -99 211 -6 0 -4 5 4 10 11 7 11 10 2 10 -7 0 -10 5 -7
10 3 6 1 10 -5 10 -6 0 -8 5 -4 12 5 8 2 9 -9 5 -9 -3 -19 -1 -23 5 -4 7 -3 8
4 4 7 -4 12 -2 12 3 0 6 -4 11 -9 11 -5 0 -13 10 -16 21 -6 17 -9 19 -16 8 -7
-11 -9 -11 -9 3 0 9 -13 22 -30 30 -16 7 -30 17 -30 23 0 5 -5 3 -10 -5 -8
-13 -10 -13 -10 2 0 9 -4 20 -10 23 -6 3 -7 -1 -4 -12 3 -10 -2 -7 -10 7 -22
36 -20 40 23 40 43 0 63 15 32 25 -10 3 -27 15 -37 27 -19 21 -19 21 6 14 50
-15 116 -18 144 -6 l30 11 -38 31 c-43 35 -42 47 3 24 42 -22 87 -20 146 7
l50 24 -40 21 -40 22 66 -6 c52 -5 72 -3 100 12 l34 17 -32 9 c-52 13 -39 25
35 31 91 8 137 23 175 57 26 24 29 29 13 30 -27 0 -96 22 -96 30 0 4 25 10 56
14 67 8 103 25 138 66 30 36 33 50 9 50 -9 0 -41 12 -71 26 -30 14 -75 29 -99
33 l-45 6 54 35 c74 49 100 113 105 265 5 137 0 147 -59 112 -23 -14 -61 -44
-83 -66 -21 -23 -42 -41 -45 -41 -4 0 -4 27 -2 60 3 40 -3 91 -17 153 -21 89
-68 208 -89 220 -5 4 -27 -33 -50 -81z m87 -36 c24 -49 51 -163 51 -217 0 -61
-28 -137 -66 -174 -32 -32 -63 -48 -49 -26 3 5 1 12 -4 15 -5 4 -7 18 -5 32 4
24 2 26 -20 22 -15 -3 -24 -1 -23 6 1 6 -4 10 -11 8 -8 -1 -11 2 -8 7 4 5 -5
18 -18 28 -22 17 -23 21 -10 44 7 13 25 60 39 103 30 90 81 196 94 196 5 0 19
-20 30 -44z m241 -310 c0 -137 -48 -214 -168 -268 -35 -16 -66 -27 -68 -25 -2
2 3 20 11 40 19 45 19 47 0 47 -8 0 -24 9 -34 19 -11 11 -23 16 -27 13 -5 -4
-2 1 5 11 12 15 12 17 -5 11 -10 -3 6 11 36 30 30 20 75 56 100 79 74 71 132
117 141 111 5 -3 9 -33 9 -68z m-244 -219 c14 -14 -32 -62 -86 -89 -46 -23
-71 -28 -150 -32 -94 -4 -140 4 -140 23 0 16 66 62 127 87 50 21 71 24 150 22
50 -2 95 -6 99 -11z m143 -167 c40 -17 80 -30 88 -30 8 0 11 -5 7 -11 -4 -7 2
-6 17 2 22 11 19 13 -46 31 -76 21 -113 43 -55 32 19 -3 49 -10 65 -14 17 -5
43 -11 59 -15 l29 -6 -24 -25 c-38 -41 -69 -51 -152 -53 -43 0 -82 -3 -85 -5
-4 -2 -25 -1 -47 3 l-40 6 38 34 c21 19 36 39 34 45 -2 5 -19 15 -38 22 l-34
12 55 1 c39 1 76 -8 129 -29z m-234 -110 c33 -31 31 -40 -5 -30 -38 11 -30 10
-94 10 -39 0 -60 5 -72 18 -17 16 -16 17 17 24 63 12 128 3 154 -22z m200 -50
c47 0 85 -4 85 -9 0 -5 -28 -19 -62 -30 -73 -24 -162 -23 -198 2 l-23 16 27 7
c20 5 26 12 23 24 -4 17 -2 17 29 4 20 -8 68 -14 119 -14z m-321 -59 c3 -4 3
-10 0 -13 -7 -8 -54 3 -54 13 0 12 47 12 54 0z m100 -18 c3 -4 13 -8 20 -9 23
-3 69 -38 56 -42 -6 -2 -17 1 -23 7 -6 6 -23 11 -37 11 -25 0 -50 16 -50 32 0
10 24 11 34 1z m-327 -410 c1 -24 0 -25 -6 -8 -7 17 -6 35 2 35 2 0 3 -12 4
-27z m-46 -387 c-11 -25 -22 -46 -25 -46 -2 0 5 22 17 50 11 27 23 48 25 46 2
-3 -5 -25 -17 -50z m6 -155 c-1 -16 -4 -18 -17 -8 -25 19 -26 20 -7 14 9 -4
17 -2 17 3 0 6 2 10 4 10 3 0 4 -9 3 -19z"/>
<path d="M3553 4217 c-17 -36 -29 -68 -26 -71 4 -4 22 8 40 26 18 17 33 30 33
27 0 -2 7 -22 15 -44 l15 -40 -6 45 c-3 25 -13 62 -23 83 l-16 39 -32 -65z"/>
<path d="M3785 3969 l-40 -41 34 4 c30 3 36 0 41 -22 6 -24 7 -23 13 9 9 45 9
91 -1 91 -4 0 -26 -18 -47 -41z"/>
<path d="M3800 3520 c-8 -5 -10 -10 -5 -10 6 0 17 5 25 10 8 5 11 10 5 10 -5
0 -17 -5 -25 -10z"/>
<path d="M3670 3400 c8 -5 22 -9 30 -9 10 0 8 3 -5 9 -27 12 -43 12 -25 0z"/>
<path d="M1893 4334 c-29 -17 -68 -43 -87 -57 -38 -30 -116 -141 -116 -166 1
-9 12 7 26 35 35 73 177 203 149 137 -18 -41 -54 -225 -48 -241 6 -14 8 -13
14 8 4 14 7 39 8 57 1 24 5 31 15 27 9 -3 17 3 21 18 4 13 21 41 38 63 98 127
100 130 28 58 -39 -40 -73 -73 -76 -73 -10 0 10 38 47 87 54 71 47 87 -19 47z"/>
<path d="M2010 4269 c0 -5 -4 -7 -10 -4 -6 3 -10 -4 -10 -17 1 -22 1 -22 15
-4 15 20 19 36 10 36 -3 0 -5 -5 -5 -11z"/>
<path d="M3441 4224 c0 -11 3 -14 6 -6 3 7 2 16 -1 19 -3 4 -6 -2 -5 -13z"/>
<path d="M1683 4008 c1 -49 -2 -88 -6 -88 -48 0 -60 3 -79 25 -20 24 -23 24
-30 8 -3 -10 -7 -45 -7 -78 -1 -46 5 -70 24 -102 l24 -43 -45 0 c-24 0 -44 -2
-44 -5 0 -25 46 -118 63 -127 l22 -12 -25 -8 c-19 -6 -16 -6 10 -2 19 3 58 8
85 11 28 3 52 7 54 9 9 8 -51 74 -67 74 -12 -1 -7 -9 18 -30 l34 -30 -53 0
c-49 0 -57 3 -88 36 -45 48 -40 66 17 71 64 6 71 18 33 53 -53 50 -73 157 -24
130 11 -5 28 -10 39 -10 10 0 29 -9 42 -20 40 -35 47 -27 29 30 -6 19 -14 71
-19 115 l-8 80 1 -87z"/>
<path d="M1903 3975 c0 -22 2 -30 4 -17 2 12 2 30 0 40 -3 9 -5 -1 -4 -23z"/>
<path d="M1684 3741 c4 -6 22 -18 39 -27 30 -14 31 -14 12 1 -30 25 -59 39
-51 26z"/>
<path d="M1617 3508 c2 -5 15 -8 29 -8 13 0 24 -5 24 -11 0 -6 -6 -9 -12 -6
-7 2 -21 1 -32 -2 -17 -7 -17 -9 5 -32 13 -14 18 -18 12 -9 -20 25 -16 30 23
30 37 0 77 26 52 34 -24 9 -106 11 -101 4z"/>
<path d="M1678 3408 c12 -12 100 -24 90 -13 -4 5 -28 11 -53 15 -28 4 -42 3
-37 -2z"/>
<path d="M1760 3351 l-25 -7 35 -22 c19 -12 49 -22 65 -21 26 0 27 2 10 9 -11
5 -30 9 -42 9 -31 1 -38 20 -11 30 27 11 4 12 -32 2z"/>
<path d="M2863 3278 c-18 -11 -33 -24 -33 -28 0 -15 15 -19 30 -9 8 5 11 9 6
9 -5 0 1 11 14 25 28 30 26 30 -17 3z"/>
<path d="M1852 3260 c-24 -19 -22 -23 22 -40 18 -6 25 -6 21 0 -3 6 -13 10
-21 10 -21 0 -17 18 6 25 11 3 20 11 20 16 0 15 -23 10 -48 -11z"/>
<path d="M1958 3226 c-24 -5 -35 -11 -26 -13 9 -2 15 -10 12 -17 -4 -9 12 -15
55 -19 69 -8 80 -5 103 28 l18 23 -60 4 c-32 1 -79 -1 -102 -6z m109 -12 c32
-9 18 -24 -20 -24 -49 0 -82 11 -65 21 15 10 54 11 85 3z"/>
<path d="M2159 2999 c-26 -26 -21 -57 11 -81 31 -23 58 -15 66 19 15 57 -39
100 -77 62z m51 -2 c0 -6 -37 -47 -42 -47 -4 0 -3 36 1 48 1 3 41 2 41 -1z"/>
<path d="M2542 3003 c-25 -10 -34 -53 -17 -79 21 -33 60 -31 82 2 15 24 15 29
2 53 -14 25 -41 35 -67 24z m21 -38 c-23 -31 -33 -31 -33 0 0 20 5 25 25 25
26 0 26 0 8 -25z"/>
<path d="M2368 2920 c-2 -6 -13 -12 -26 -13 -26 -2 -28 -10 -8 -27 20 -16 56
-9 70 13 8 14 8 20 -4 27 -19 13 -28 12 -32 0z"/>
<path d="M2008 2899 c-22 -12 -23 -42 -3 -59 12 -10 21 -10 45 0 17 7 33 17
36 22 4 6 -1 6 -12 0 -14 -7 -24 -6 -37 3 -20 14 -22 31 -4 38 6 3 8 6 2 6 -5
0 -18 -4 -27 -10z"/>
<path d="M2509 2793 c-13 -16 -12 -17 4 -4 16 13 21 21 13 21 -2 0 -10 -8 -17
-17z"/>
<path d="M2803 2783 c9 -2 23 -2 30 0 6 3 -1 5 -18 5 -16 0 -22 -2 -12 -5z"/>
<path d="M1941 2768 c0 -9 6 -24 15 -33 15 -15 18 -14 40 6 29 27 29 28 7 24
-10 -1 -17 -8 -15 -14 1 -6 -5 -11 -14 -11 -9 0 -12 5 -8 12 4 6 3 8 -4 4 -6
-3 -13 2 -15 11 -4 16 -5 16 -6 1z"/>
<path d="M2533 2352 c1 -13 5 -18 10 -13 12 12 39 2 31 -11 -6 -9 88 -4 105 7
5 3 12 -1 14 -7 4 -10 6 -10 6 -1 1 7 9 10 19 7 9 -3 4 2 -12 11 -15 9 -61 19
-101 22 -71 6 -74 5 -72 -15z"/>
<path d="M2795 2311 c-2 -4 10 -8 26 -9 16 -1 29 -1 29 2 0 7 -50 13 -55 7z"/>
<path d="M1910 2228 c-18 -13 -45 -38 -59 -57 l-26 -34 25 8 c22 7 23 6 11 -9
-12 -14 -11 -16 5 -16 16 0 15 -2 -4 -23 -17 -18 -19 -26 -10 -35 17 -17 41
-15 35 2 -4 11 0 13 15 11 41 -8 63 26 44 68 -5 10 -3 23 4 32 6 8 9 19 5 24
-3 6 -1 20 5 31 15 28 -7 27 -50 -2z m-7 -113 c-3 -9 -8 -14 -10 -11 -3 3 -2
9 2 15 9 16 15 13 8 -4z"/>
<path d="M1762 2041 c-14 -38 -11 -49 7 -27 7 8 11 25 9 38 -3 20 -5 19 -16
-11z"/>
<path d="M3252 1748 c-23 -5 -40 -14 -37 -19 11 -17 63 -39 79 -33 18 7 21 20
6 29 -5 3 -7 12 -3 20 3 8 4 15 2 14 -2 -1 -23 -5 -47 -11z"/>
</g>
</svg>
